<svg width="272" height="77" viewBox="0 0 272 77" fill="none" xmlns="http://www.w3.org/2000/svg">
<rect width="272" height="77" fill="white"/>
<path d="M67.424 12.536V35H61.952V21.528L56.928 35H52.512L47.456 21.496V35H41.984V12.536H48.448L54.752 28.088L60.992 12.536H67.424ZM88.191 25.784C88.191 26.296 88.159 26.8293 88.095 27.384H75.711C75.7963 28.4933 76.1483 29.3467 76.767 29.944C77.407 30.52 78.1857 30.808 79.103 30.808C80.4683 30.808 81.4177 30.232 81.951 29.08H87.775C87.4763 30.2533 86.9323 31.3093 86.143 32.248C85.375 33.1867 84.4043 33.9227 83.231 34.456C82.0577 34.9893 80.7457 35.256 79.295 35.256C77.5457 35.256 75.9883 34.8827 74.623 34.136C73.2577 33.3893 72.191 32.3227 71.423 30.936C70.655 29.5493 70.271 27.928 70.271 26.072C70.271 24.216 70.6443 22.5947 71.391 21.208C72.159 19.8213 73.2257 18.7547 74.591 18.008C75.9563 17.2613 77.5243 16.888 79.295 16.888C81.023 16.888 82.559 17.2507 83.903 17.976C85.247 18.7013 86.2923 19.736 87.039 21.08C87.807 22.424 88.191 23.992 88.191 25.784ZM82.591 24.344C82.591 23.4053 82.271 22.6587 81.631 22.104C80.991 21.5493 80.191 21.272 79.231 21.272C78.3137 21.272 77.535 21.5387 76.895 22.072C76.2763 22.6053 75.8923 23.3627 75.743 24.344H82.591ZM89.9898 26.04C89.9898 24.2053 90.3311 22.5947 91.0138 21.208C91.7178 19.8213 92.6671 18.7547 93.8618 18.008C95.0564 17.2613 96.3898 16.888 97.8618 16.888C99.0351 16.888 100.102 17.1333 101.062 17.624C102.043 18.1147 102.811 18.776 103.366 19.608V11.32H108.838V35H103.366V32.44C102.854 33.2933 102.118 33.976 101.158 34.488C100.219 35 99.1204 35.256 97.8618 35.256C96.3898 35.256 95.0564 34.8827 93.8618 34.136C92.6671 33.368 91.7178 32.2907 91.0138 30.904C90.3311 29.496 89.9898 27.8747 89.9898 26.04ZM103.366 26.072C103.366 24.7067 102.982 23.6293 102.214 22.84C101.467 22.0507 100.55 21.656 99.4618 21.656C98.3738 21.656 97.4458 22.0507 96.6778 22.84C95.9311 23.608 95.5578 24.6747 95.5578 26.04C95.5578 27.4053 95.9311 28.4933 96.6778 29.304C97.4458 30.0933 98.3738 30.488 99.4618 30.488C100.55 30.488 101.467 30.0933 102.214 29.304C102.982 28.5147 103.366 27.4373 103.366 26.072ZM115.549 15.288C114.589 15.288 113.799 15.0107 113.181 14.456C112.583 13.88 112.285 13.176 112.285 12.344C112.285 11.4907 112.583 10.7867 113.181 10.232C113.799 9.656 114.589 9.368 115.549 9.368C116.487 9.368 117.255 9.656 117.853 10.232C118.471 10.7867 118.781 11.4907 118.781 12.344C118.781 13.176 118.471 13.88 117.853 14.456C117.255 15.0107 116.487 15.288 115.549 15.288ZM118.269 17.144V35H112.797V17.144H118.269Z" fill="#334155"/>
<path d="M129.53 35.224C127.098 35.224 125.114 34.7013 123.578 33.656C122.063 32.5893 121.306 31.0853 121.306 29.144C121.306 28.952 121.327 28.664 121.37 28.28H127.066C127.002 29.0907 127.194 29.7307 127.642 30.2C128.09 30.6693 128.773 30.904 129.69 30.904C130.522 30.904 131.173 30.7227 131.642 30.36C132.133 29.9973 132.378 29.4853 132.378 28.824C132.378 28.1413 132.069 27.5867 131.45 27.16C130.853 26.7333 129.914 26.2533 128.634 25.72C127.397 25.208 126.383 24.728 125.594 24.28C124.826 23.8107 124.154 23.1813 123.578 22.392C123.002 21.6027 122.714 20.6107 122.714 19.416C122.693 17.944 123.055 16.664 123.802 15.576C124.549 14.488 125.583 13.656 126.906 13.08C128.229 12.504 129.743 12.216 131.45 12.216C132.986 12.216 134.351 12.4613 135.546 12.952C136.741 13.4213 137.669 14.1147 138.33 15.032C138.991 15.928 139.322 16.9947 139.322 18.232C139.322 18.552 139.311 18.7867 139.29 18.936H133.466C133.487 18.8507 133.498 18.7227 133.498 18.552C133.498 17.9547 133.285 17.4747 132.858 17.112C132.453 16.728 131.887 16.536 131.162 16.536C130.394 16.536 129.765 16.728 129.274 17.112C128.805 17.4747 128.57 17.976 128.57 18.616C128.57 19.256 128.869 19.8 129.466 20.248C130.063 20.6747 130.991 21.176 132.25 21.752C133.509 22.328 134.533 22.8613 135.322 23.352C136.133 23.8427 136.826 24.504 137.402 25.336C137.978 26.1467 138.266 27.1493 138.266 28.344C138.266 29.6667 137.914 30.8507 137.21 31.896C136.506 32.9413 135.493 33.7627 134.17 34.36C132.847 34.936 131.301 35.224 129.53 35.224ZM154.556 16.952C156.348 16.952 157.756 17.4533 158.78 18.456C159.804 19.4587 160.316 20.856 160.316 22.648C160.316 23.2453 160.252 23.8853 160.124 24.568L158.268 35H152.828L154.556 25.304C154.62 24.9413 154.652 24.6213 154.652 24.344C154.652 23.448 154.396 22.7547 153.884 22.264C153.394 21.7733 152.7 21.528 151.804 21.528C150.738 21.528 149.842 21.8587 149.116 22.52C148.391 23.1813 147.922 24.1093 147.708 25.304V25.144L145.98 35H140.508L143.644 17.144H149.116L148.7 19.544C149.404 18.7547 150.258 18.1253 151.26 17.656C152.284 17.1867 153.383 16.952 154.556 16.952ZM162.583 26.04C162.903 24.2053 163.532 22.5947 164.471 21.208C165.409 19.8213 166.54 18.7547 167.863 18.008C169.185 17.2613 170.583 16.888 172.055 16.888C173.313 16.888 174.369 17.144 175.223 17.656C176.076 18.168 176.695 18.84 177.079 19.672L177.527 17.144H182.999L179.831 35H174.359L174.839 32.472C174.156 33.304 173.292 33.976 172.247 34.488C171.201 35 170.049 35.256 168.791 35.256C167.532 35.256 166.412 34.968 165.431 34.392C164.471 33.816 163.724 33.0053 163.191 31.96C162.657 30.8933 162.391 29.6453 162.391 28.216C162.391 27.5333 162.455 26.808 162.583 26.04ZM175.959 26.072C176.023 25.688 176.055 25.336 176.055 25.016C176.055 23.9707 175.745 23.1493 175.127 22.552C174.529 21.9547 173.761 21.656 172.823 21.656C171.735 21.656 170.743 22.0507 169.847 22.84C168.951 23.608 168.385 24.6747 168.151 26.04C168.087 26.424 168.055 26.776 168.055 27.096C168.055 28.1413 168.353 28.9733 168.951 29.592C169.569 30.1893 170.337 30.488 171.255 30.488C172.343 30.488 173.335 30.0933 174.231 29.304C175.127 28.5147 175.703 27.4373 175.959 26.072ZM191.95 19.672C192.632 18.84 193.486 18.168 194.51 17.656C195.555 17.144 196.707 16.888 197.966 16.888C199.886 16.888 201.432 17.5173 202.606 18.776C203.8 20.0347 204.398 21.7413 204.398 23.896C204.398 24.5573 204.334 25.272 204.206 26.04C203.886 27.8747 203.256 29.496 202.318 30.904C201.379 32.2907 200.248 33.368 198.926 34.136C197.603 34.8827 196.206 35.256 194.734 35.256C193.496 35.256 192.451 35 191.598 34.488C190.744 33.976 190.115 33.3147 189.71 32.504L187.758 43.512H182.285L186.926 17.144H192.398L191.95 19.672ZM198.67 26.04C198.734 25.6773 198.766 25.3467 198.766 25.048C198.766 23.9813 198.456 23.1493 197.838 22.552C197.24 21.9547 196.472 21.656 195.534 21.656C194.446 21.656 193.454 22.0507 192.558 22.84C191.662 23.6293 191.086 24.7067 190.83 26.072C190.766 26.456 190.734 26.808 190.734 27.128C190.734 28.1733 191.032 28.9947 191.63 29.592C192.227 30.1893 192.995 30.488 193.934 30.488C195.022 30.488 196.014 30.0933 196.91 29.304C197.827 28.4933 198.414 27.4053 198.67 26.04Z" fill="#0B6A63"/>
<path d="M76.296 51.172L72.894 57.752V61H70.5V57.752L67.098 51.172H69.814L71.718 55.288L73.608 51.172H76.296ZM80.8166 61.112C80.0512 61.112 79.3606 60.9487 78.7446 60.622C78.1379 60.2953 77.6572 59.8287 77.3026 59.222C76.9572 58.6153 76.7846 57.906 76.7846 57.094C76.7846 56.2913 76.9619 55.5867 77.3166 54.98C77.6712 54.364 78.1566 53.8927 78.7726 53.566C79.3886 53.2393 80.0792 53.076 80.8446 53.076C81.6099 53.076 82.3006 53.2393 82.9166 53.566C83.5326 53.8927 84.0179 54.364 84.3726 54.98C84.7272 55.5867 84.9046 56.2913 84.9046 57.094C84.9046 57.8967 84.7226 58.606 84.3586 59.222C84.0039 59.8287 83.5139 60.2953 82.8886 60.622C82.2726 60.9487 81.5819 61.112 80.8166 61.112ZM80.8166 59.04C81.2739 59.04 81.6612 58.872 81.9786 58.536C82.3052 58.2 82.4686 57.7193 82.4686 57.094C82.4686 56.4687 82.3099 55.988 81.9926 55.652C81.6846 55.316 81.3019 55.148 80.8446 55.148C80.3779 55.148 79.9906 55.316 79.6826 55.652C79.3746 55.9787 79.2206 56.4593 79.2206 57.094C79.2206 57.7193 79.3699 58.2 79.6686 58.536C79.9766 58.872 80.3592 59.04 80.8166 59.04ZM93.8886 53.188V61H91.4946V59.936C91.252 60.2813 90.9206 60.5613 90.5006 60.776C90.09 60.9813 89.6326 61.084 89.1286 61.084C88.5313 61.084 88.004 60.9533 87.5466 60.692C87.0893 60.4213 86.7346 60.034 86.4826 59.53C86.2306 59.026 86.1046 58.4333 86.1046 57.752V53.188H88.4846V57.43C88.4846 57.9527 88.62 58.3587 88.8906 58.648C89.1613 58.9373 89.5253 59.082 89.9826 59.082C90.4493 59.082 90.818 58.9373 91.0886 58.648C91.3593 58.3587 91.4946 57.9527 91.4946 57.43V53.188H93.8886ZM98.0022 54.49C98.2822 54.0607 98.6322 53.7247 99.0522 53.482C99.4722 53.23 99.9389 53.104 100.452 53.104V55.638H99.7942C99.1969 55.638 98.7489 55.7687 98.4502 56.03C98.1516 56.282 98.0022 56.73 98.0022 57.374V61H95.6082V53.188H98.0022V54.49ZM177.461 61.098C176.537 61.098 175.688 60.8833 174.913 60.454C174.148 60.0247 173.537 59.4273 173.079 58.662C172.631 57.8873 172.407 57.0193 172.407 56.058C172.407 55.0967 172.631 54.2333 173.079 53.468C173.537 52.7027 174.148 52.1053 174.913 51.676C175.688 51.2467 176.537 51.032 177.461 51.032C178.385 51.032 179.23 51.2467 179.995 51.676C180.77 52.1053 181.377 52.7027 181.815 53.468C182.263 54.2333 182.487 55.0967 182.487 56.058C182.487 57.0193 182.263 57.8873 181.815 58.662C181.367 59.4273 180.761 60.0247 179.995 60.454C179.23 60.8833 178.385 61.098 177.461 61.098ZM177.461 58.914C178.245 58.914 178.871 58.6527 179.337 58.13C179.813 57.6073 180.051 56.9167 180.051 56.058C180.051 55.19 179.813 54.4993 179.337 53.986C178.871 53.4633 178.245 53.202 177.461 53.202C176.668 53.202 176.033 53.4587 175.557 53.972C175.091 54.4853 174.857 55.1807 174.857 56.058C174.857 56.926 175.091 57.6213 175.557 58.144C176.033 58.6573 176.668 58.914 177.461 58.914ZM191.533 53.188V61H189.139V59.936C188.897 60.2813 188.565 60.5613 188.145 60.776C187.735 60.9813 187.277 61.084 186.773 61.084C186.176 61.084 185.649 60.9533 185.191 60.692C184.734 60.4213 184.379 60.034 184.127 59.53C183.875 59.026 183.749 58.4333 183.749 57.752V53.188H186.129V57.43C186.129 57.9527 186.265 58.3587 186.535 58.648C186.806 58.9373 187.17 59.082 187.627 59.082C188.094 59.082 188.463 58.9373 188.733 58.648C189.004 58.3587 189.139 57.9527 189.139 57.43V53.188H191.533ZM195.647 54.49C195.927 54.0607 196.277 53.7247 196.697 53.482C197.117 53.23 197.583 53.104 198.097 53.104V55.638H197.439C196.841 55.638 196.393 55.7687 196.095 56.03C195.796 56.282 195.647 56.73 195.647 57.374V61H193.253V53.188H195.647V54.49Z" fill="#334155"/>
<path d="M119.109 51.172L114.811 61H111.913L111.479 54.546L108.721 61H105.823L105.067 51.172H107.629L107.783 58.326L110.793 51.172H113.439L113.859 58.284L116.533 51.172H119.109ZM123.446 53.076C124.454 53.076 125.252 53.3513 125.84 53.902C126.437 54.4433 126.736 55.1853 126.736 56.128C126.736 56.436 126.713 56.7113 126.666 56.954C126.629 57.1687 126.573 57.3973 126.498 57.64H121.08C121.071 57.696 121.066 57.7847 121.066 57.906C121.066 58.3167 121.178 58.6293 121.402 58.844C121.626 59.0587 121.925 59.166 122.298 59.166C122.895 59.166 123.353 58.914 123.67 58.41H126.218C125.882 59.2033 125.336 59.852 124.58 60.356C123.824 60.86 122.975 61.112 122.032 61.112C121.024 61.112 120.217 60.832 119.61 60.272C119.013 59.712 118.714 58.9513 118.714 57.99C118.714 57.7007 118.742 57.402 118.798 57.094C118.938 56.282 119.227 55.5727 119.666 54.966C120.105 54.3593 120.651 53.8927 121.304 53.566C121.957 53.2393 122.671 53.076 123.446 53.076ZM124.314 56.422C124.333 56.2913 124.342 56.2027 124.342 56.156C124.342 55.7827 124.225 55.498 123.992 55.302C123.759 55.0967 123.451 54.994 123.068 54.994C122.657 54.994 122.293 55.12 121.976 55.372C121.668 55.6147 121.444 55.9647 121.304 56.422H124.314ZM131.429 50.64L129.595 61H127.201L129.035 50.64H131.429ZM135.558 50.64L133.724 61H131.33L133.164 50.64H135.558ZM141.605 53.104C142.389 53.104 143.005 53.3233 143.453 53.762C143.901 54.2007 144.125 54.812 144.125 55.596C144.125 55.8573 144.097 56.1373 144.041 56.436L143.229 61H140.849L141.605 56.758C141.633 56.5993 141.647 56.4593 141.647 56.338C141.647 55.946 141.535 55.6427 141.311 55.428C141.096 55.2133 140.793 55.106 140.401 55.106C139.934 55.106 139.542 55.2507 139.225 55.54C138.907 55.8293 138.702 56.2353 138.609 56.758V56.688L137.853 61H135.459L136.831 53.188H139.225L139.043 54.238C139.351 53.8927 139.724 53.6173 140.163 53.412C140.611 53.2067 141.091 53.104 141.605 53.104ZM149.764 53.076C150.772 53.076 151.57 53.3513 152.158 53.902C152.756 54.4433 153.054 55.1853 153.054 56.128C153.054 56.436 153.031 56.7113 152.984 56.954C152.947 57.1687 152.891 57.3973 152.816 57.64H147.398C147.389 57.696 147.384 57.7847 147.384 57.906C147.384 58.3167 147.496 58.6293 147.72 58.844C147.944 59.0587 148.243 59.166 148.616 59.166C149.214 59.166 149.671 58.914 149.988 58.41H152.536C152.2 59.2033 151.654 59.852 150.898 60.356C150.142 60.86 149.293 61.112 148.35 61.112C147.342 61.112 146.535 60.832 145.928 60.272C145.331 59.712 145.032 58.9513 145.032 57.99C145.032 57.7007 145.06 57.402 145.116 57.094C145.256 56.282 145.546 55.5727 145.984 54.966C146.423 54.3593 146.969 53.8927 147.622 53.566C148.276 53.2393 148.99 53.076 149.764 53.076ZM150.632 56.422C150.651 56.2913 150.66 56.2027 150.66 56.156C150.66 55.7827 150.544 55.498 150.31 55.302C150.077 55.0967 149.769 54.994 149.386 54.994C148.976 54.994 148.612 55.12 148.294 55.372C147.986 55.6147 147.762 55.9647 147.622 56.422H150.632ZM156.767 61.112C156.151 61.112 155.596 61.014 155.101 60.818C154.616 60.622 154.233 60.3513 153.953 60.006C153.673 59.6513 153.533 59.2453 153.533 58.788C153.533 58.7227 153.543 58.606 153.561 58.438H155.871C155.853 58.7273 155.937 58.9607 156.123 59.138C156.319 59.306 156.595 59.39 156.949 59.39C157.248 59.39 157.495 59.334 157.691 59.222C157.887 59.11 157.985 58.9513 157.985 58.746C157.985 58.55 157.878 58.396 157.663 58.284C157.458 58.1627 157.113 58.018 156.627 57.85C156.123 57.682 155.699 57.5187 155.353 57.36C155.017 57.192 154.728 56.954 154.485 56.646C154.243 56.338 154.121 55.9507 154.121 55.484C154.121 55.0267 154.257 54.616 154.527 54.252C154.798 53.8787 155.176 53.5893 155.661 53.384C156.156 53.1787 156.725 53.076 157.369 53.076C158.013 53.076 158.573 53.1833 159.049 53.398C159.525 53.6033 159.894 53.8927 160.155 54.266C160.417 54.6393 160.547 55.0593 160.547 55.526L160.533 55.736H158.363C158.382 55.456 158.298 55.232 158.111 55.064C157.925 54.896 157.659 54.812 157.313 54.812C157.043 54.812 156.819 54.868 156.641 54.98C156.473 55.092 156.389 55.246 156.389 55.442C156.389 55.6473 156.501 55.82 156.725 55.96C156.959 56.0907 157.318 56.24 157.803 56.408C158.307 56.576 158.723 56.744 159.049 56.912C159.385 57.0707 159.67 57.2993 159.903 57.598C160.146 57.8873 160.267 58.2513 160.267 58.69C160.267 59.194 160.113 59.628 159.805 59.992C159.507 60.356 159.091 60.636 158.559 60.832C158.037 61.0187 157.439 61.112 156.767 61.112ZM164.574 61.112C163.958 61.112 163.403 61.014 162.908 60.818C162.423 60.622 162.04 60.3513 161.76 60.006C161.48 59.6513 161.34 59.2453 161.34 58.788C161.34 58.7227 161.349 58.606 161.368 58.438H163.678C163.659 58.7273 163.743 58.9607 163.93 59.138C164.126 59.306 164.401 59.39 164.756 59.39C165.055 59.39 165.302 59.334 165.498 59.222C165.694 59.11 165.792 58.9513 165.792 58.746C165.792 58.55 165.685 58.396 165.47 58.284C165.265 58.1627 164.919 58.018 164.434 57.85C163.93 57.682 163.505 57.5187 163.16 57.36C162.824 57.192 162.535 56.954 162.292 56.646C162.049 56.338 161.928 55.9507 161.928 55.484C161.928 55.0267 162.063 54.616 162.334 54.252C162.605 53.8787 162.983 53.5893 163.468 53.384C163.963 53.1787 164.532 53.076 165.176 53.076C165.82 53.076 166.38 53.1833 166.856 53.398C167.332 53.6033 167.701 53.8927 167.962 54.266C168.223 54.6393 168.354 55.0593 168.354 55.526L168.34 55.736H166.17C166.189 55.456 166.105 55.232 165.918 55.064C165.731 54.896 165.465 54.812 165.12 54.812C164.849 54.812 164.625 54.868 164.448 54.98C164.28 55.092 164.196 55.246 164.196 55.442C164.196 55.6473 164.308 55.82 164.532 55.96C164.765 56.0907 165.125 56.24 165.61 56.408C166.114 56.576 166.529 56.744 166.856 56.912C167.192 57.0707 167.477 57.2993 167.71 57.598C167.953 57.8873 168.074 58.2513 168.074 58.69C168.074 59.194 167.92 59.628 167.612 59.992C167.313 60.356 166.898 60.636 166.366 60.832C165.843 61.0187 165.246 61.112 164.574 61.112ZM210.16 54.336C210.067 54.9053 209.847 55.428 209.502 55.904C209.157 56.3707 208.685 56.7487 208.088 57.038C207.5 57.3273 206.805 57.472 206.002 57.472H204.518L203.888 61H201.494L203.23 51.172H207.108C208.135 51.172 208.909 51.4007 209.432 51.858C209.955 52.306 210.216 52.9173 210.216 53.692C210.216 53.9253 210.197 54.14 210.16 54.336ZM206.142 55.596C207.038 55.596 207.565 55.176 207.724 54.336C207.743 54.1867 207.752 54.0793 207.752 54.014C207.752 53.7153 207.654 53.4867 207.458 53.328C207.271 53.16 206.982 53.076 206.59 53.076H205.288L204.854 55.596H206.142ZM213.744 54.602C214.108 54.1353 214.524 53.7713 214.99 53.51C215.466 53.2393 215.961 53.104 216.474 53.104L216.026 55.638H215.368C214.771 55.638 214.3 55.7687 213.954 56.03C213.609 56.282 213.38 56.73 213.268 57.374L212.624 61H210.23L211.602 53.188H213.996L213.744 54.602ZM218.948 52.376C218.575 52.376 218.276 52.278 218.052 52.082C217.838 51.8767 217.73 51.62 217.73 51.312C217.73 50.892 217.894 50.5327 218.22 50.234C218.547 49.9353 218.944 49.786 219.41 49.786C219.784 49.786 220.078 49.8887 220.292 50.094C220.507 50.29 220.614 50.5467 220.614 50.864C220.614 51.2747 220.451 51.6293 220.124 51.928C219.798 52.2267 219.406 52.376 218.948 52.376ZM219.984 53.188L218.612 61H216.218L217.59 53.188H219.984ZM223.917 61.112C223.245 61.112 222.648 60.9767 222.125 60.706C221.603 60.4353 221.197 60.0527 220.907 59.558C220.627 59.0633 220.487 58.4893 220.487 57.836C220.487 56.9493 220.697 56.142 221.117 55.414C221.537 54.686 222.116 54.1167 222.853 53.706C223.591 53.286 224.412 53.076 225.317 53.076C225.989 53.076 226.587 53.216 227.109 53.496C227.641 53.7667 228.052 54.1493 228.341 54.644C228.631 55.1387 228.775 55.7127 228.775 56.366C228.775 57.262 228.561 58.074 228.131 58.802C227.711 59.5207 227.128 60.0853 226.381 60.496C225.644 60.9067 224.823 61.112 223.917 61.112ZM224.253 59.054C224.645 59.054 224.995 58.9373 225.303 58.704C225.621 58.4613 225.863 58.1533 226.031 57.78C226.209 57.3973 226.297 57.0007 226.297 56.59C226.297 56.1233 226.171 55.764 225.919 55.512C225.667 55.26 225.35 55.134 224.967 55.134C224.566 55.134 224.211 55.2553 223.903 55.498C223.605 55.7313 223.371 56.0393 223.203 56.422C223.035 56.8047 222.951 57.206 222.951 57.626C222.951 58.0833 223.073 58.438 223.315 58.69C223.558 58.9327 223.871 59.054 224.253 59.054ZM232.775 54.602C233.139 54.1353 233.555 53.7713 234.021 53.51C234.497 53.2393 234.992 53.104 235.505 53.104L235.057 55.638H234.399C233.802 55.638 233.331 55.7687 232.985 56.03C232.64 56.282 232.411 56.73 232.299 57.374L231.655 61H229.261L230.633 53.188H233.027L232.775 54.602ZM237.98 52.376C237.606 52.376 237.308 52.278 237.084 52.082C236.869 51.8767 236.762 51.62 236.762 51.312C236.762 50.892 236.925 50.5327 237.252 50.234C237.578 49.9353 237.975 49.786 238.442 49.786C238.815 49.786 239.109 49.8887 239.324 50.094C239.538 50.29 239.646 50.5467 239.646 50.864C239.646 51.2747 239.482 51.6293 239.156 51.928C238.829 52.2267 238.437 52.376 237.98 52.376ZM239.016 53.188L237.644 61H235.25L236.622 53.188H239.016ZM242.627 58.312C242.617 58.3587 242.613 58.4193 242.613 58.494C242.613 58.662 242.659 58.7833 242.753 58.858C242.855 58.9327 243.019 58.97 243.243 58.97H244.097L243.733 61H242.515C240.947 61 240.163 60.342 240.163 59.026C240.163 58.83 240.186 58.5827 240.233 58.284L240.793 55.176H239.841L240.191 53.188H241.143L241.479 51.284H243.873L243.537 53.188H245.105L244.755 55.176H243.187L242.627 58.312ZM248.23 53.188L249.182 58.074L251.842 53.188H254.432L247.502 64.71H244.926L247.418 60.734L245.57 53.188H248.23Z" fill="#0B6A63"/>
</svg>
